<?xml version="1.0" encoding="UTF-8"?>
<svg xmlns="http://www.w3.org/2000/svg"
     width="100%"
     height="100vh"
     viewBox="0 0 1000 300"
     preserveAspectRatio="xMidYMid meet"
     style="background:white; display:block;">
  <g transform="translate(-50,150) scale(1.1)">
    <path d="m 423.67456,-32.328 c -3.312,-3.312 -7.632,-5.112 -12.24,-5.112 -4.536,0 -8.712,1.728 -11.952,4.752 -3.24,-3.024 -7.416,-4.752 -11.88,-4.752 -2.304,0 -4.536,0.432 -6.552,1.296 v -1.872 h -10.8 V 2.52 h 10.8 v -22.608 c 0,-3.6 2.952,-6.552 6.552,-6.552 3.528,0 6.48,2.952 6.48,6.552 V 2.52 h 10.8 v -22.608 c 0,-3.6 2.952,-6.552 6.552,-6.552 3.528,0 6.48,2.952 6.48,6.552 V 2.52 h 10.8 v -22.608 c 0,-4.608 -1.8,-9 -5.04,-12.24 z" fill="#4286f4"/>
    <path d="m 450.94569,2.736 c 2.88,0 5.616,-0.576 8.208,-1.656 2.448,-1.152 4.68,-2.664 6.552,-4.68 l -7.56,-7.2 c -1.872,2.016 -4.464,3.096 -7.2,3.096 -3.528,0 -6.552,-1.8 -8.352,-4.608 h 28.656 v -5.184 c 0,-5.472 -2.088,-10.512 -5.976,-14.4 -3.816,-3.816 -8.928,-5.904 -14.328,-5.904 -5.4,0 -10.512,2.088 -14.328,5.904 -3.816,3.888 -5.976,8.928 -5.976,14.4 0,5.4 2.16,10.512 5.976,14.328 3.816,3.816 8.928,5.904 14.328,5.904 z m 8.352,-25.488 h -16.704 c 1.8,-2.736 4.824,-4.608 8.352,-4.608 3.528,0 6.624,1.872 8.352,4.608 z" fill="#3e7ff3"/>
    <path d="m 473.03056,-9.504 c 1.008,2.448 2.52,4.608 4.392,6.552 1.872,1.872 4.104,3.312 6.552,4.392 2.52,1.008 5.184,1.584 7.992,1.584 2.736,0 5.4,-0.576 7.992,-1.584 2.376,-1.08 4.608,-2.52 6.48,-4.392 1.872,-1.944 3.384,-4.104 4.392,-6.552 1.08,-2.52 1.656,-5.256 1.656,-7.992 v -34.992 l -10.8,-3.6 v 20.52 l -1.728,-0.864 c -2.592,-1.008 -5.256,-1.584 -7.992,-1.584 -2.808,0 -5.472,0.576 -7.992,1.584 -2.448,1.08 -4.68,2.52 -6.552,4.392 -1.872,1.944 -3.384,4.104 -4.392,6.552 -1.08,2.52 -1.584,5.256 -1.584,7.992 0,2.736 0.504,5.472 1.584,7.992 z m 18.936,-17.712 c 5.328,0 9.72,4.392 9.72,9.72 0,5.328 -4.392,9.72 -9.72,9.72 -5.4,0 -9.72,-4.392 -9.72,-9.72 0,-5.328 4.32,-9.72 9.72,-9.72 z" fill="#3a78f2"/>
    <path d="M 518.26681,-35.424 V 2.52 h 10.872 v -41.544 z" fill="#3772f1"/>
    <path d="m 533.03694,-17.496 c 0,2.808 0.504,5.472 1.584,7.992 1.008,2.448 2.52,4.68 4.392,6.552 1.872,1.872 4.104,3.312 6.552,4.392 2.52,1.08 5.184,1.584 7.992,1.584 2.736,0 5.4,-0.504 7.992,-1.584 l 1.728,-0.864 v 16.2 l 10.8,-3.6 v -30.672 c 0,-2.736 -0.576,-5.472 -1.656,-7.992 -1.008,-2.448 -2.52,-4.608 -4.392,-6.48 -1.872,-1.944 -4.032,-3.384 -6.48,-4.392 -2.592,-1.08 -5.256,-1.656 -7.992,-1.656 -2.808,0 -5.472,0.576 -7.992,1.656 -2.448,1.008 -4.68,2.448 -6.552,4.392 -1.872,1.872 -3.384,4.032 -4.392,6.48 -1.08,2.52 -1.584,5.256 -1.584,7.992 z m 10.8,0 c 0,-5.328 4.32,-9.72 9.72,-9.72 5.328,0 9.72,4.392 9.72,9.72 0,5.4 -4.392,9.72 -9.72,9.72 -5.4,0 -9.72,-4.32 -9.72,-9.72 z" fill="#336bef"/>
    <path d="m 596.56456,2.952 c 4.752,0 9.288,-1.872 12.672,-5.256 3.456,-3.384 5.328,-7.92 5.328,-12.744 v -22.536 h -10.8 v 22.536 c 0,4.032 -3.24,7.2 -7.2,7.2 -4.032,0 -7.2,-3.168 -7.2,-7.2 v -22.536 h -10.8 v 22.536 c 0,4.824 1.872,9.36 5.256,12.744 3.384,3.384 7.92,5.256 12.744,5.256 z" fill="#2f64ee"/>
    <path d="m 636.99256,2.736 c 2.88,0 5.616,-0.576 8.208,-1.656 2.448,-1.152 4.68,-2.664 6.552,-4.68 l -7.56,-7.2 c -1.872,2.016 -4.464,3.096 -7.2,3.096 -3.528,0 -6.552,-1.8 -8.352,-4.608 h 28.656 v -5.184 c 0,-5.472 -2.088,-10.512 -5.976,-14.4 -3.816,-3.816 -8.928,-5.904 -14.328,-5.904 -5.4,0 -10.512,2.088 -14.328,5.904 -3.816,3.888 -5.976,8.928 -5.976,14.4 0,5.4 2.16,10.512 5.976,14.328 3.816,3.816 8.928,5.904 14.328,5.904 z m 8.352,-25.488 h -16.704 c 1.8,-2.736 4.824,-4.608 8.352,-4.608 3.528,0 6.624,1.872 8.352,4.608 z" fill="#2b5ded"/>
  </g>
</svg>
